<?xml version="1.0" encoding="UTF-8"?>
<svg version="1.1" xmlns="http://www.w3.org/2000/svg" width="246" height="42">
<path d="M0 0 C81.18 0 162.36 0 246 0 C246 13.86 246 27.72 246 42 C164.82 42 83.64 42 0 42 C0 28.14 0 14.28 0 0 Z " fill="#030403" transform="translate(0,0)"/>
<path d="M0 0 C37.95 0 75.9 0 115 0 C115 13.86 115 27.72 115 42 C74.08 42 33.16 42 -9 42 C-7.87617066 31.8855359 -7.87617066 31.8855359 -6.9140625 28.45703125 C-6.70523438 27.69197266 -6.49640625 26.92691406 -6.28125 26.13867188 C-6.0646875 25.37103516 -5.848125 24.60339844 -5.625 23.8125 C-3.42151438 15.91667653 -1.72457709 8.04802643 0 0 Z " fill="#040504" transform="translate(131,0)"/>
<path d="M0 0 C2.31 0 4.62 0 7 0 C7 3.3 7 6.6 7 10 C9.97 10 12.94 10 16 10 C16 7.03 16 4.06 16 1 C18.31 1 20.62 1 23 1 C23 8.92 23 16.84 23 25 C20.69 25 18.38 25 16 25 C16 22.03 16 19.06 16 16 C13.36 16 10.72 16 8 16 C8 18.97 8 21.94 8 25 C5.36 25 2.72 25 0 25 C0 16.75 0 8.5 0 0 Z " fill="#C8D4BB" transform="translate(139,9)"/>
<path d="M0 0 C0.04241723 2.33294775 0.04092937 4.66702567 0 7 C-0.33 7.33 -0.66 7.66 -1 8 C-1.04092937 10.33297433 -1.04241723 12.66705225 -1 15 C-4.63 15 -8.26 15 -12 15 C-12 15.66 -12 16.32 -12 17 C-8.04 17 -4.08 17 0 17 C0 19.31 0 21.62 0 24 C-12.66606714 25.02852275 -12.66606714 25.02852275 -17.3125 21.8125 C-20.29328292 18.68977504 -20.61130519 15.6662059 -20.875 11.4375 C-20.67293516 8.2191582 -20.49059012 5.84877184 -18.87109375 3.046875 C-13.65862271 -1.49934035 -6.46901938 -0.43775319 0 0 Z " fill="#949F88" transform="translate(227,10)"/>
<path d="M0 0 C2.31 0 4.62 0 7 0 C7 2.97 7 5.94 7 9 C9.64 9 12.28 9 15 9 C15 6.03 15 3.06 15 0 C17.31 0 19.62 0 22 0 C22 7.92 22 15.84 22 24 C19.69 24 17.38 24 15 24 C15 21.03 15 18.06 15 15 C12.36 15 9.72 15 7 15 C7 17.97 7 20.94 7 24 C4.69 24 2.38 24 0 24 C0 16.08 0 8.16 0 0 Z " fill="#DCE9CE" transform="translate(19,10)"/>
<path d="M0 0 C2.31 0 4.62 0 7 0 C7.33 2.31 7.66 4.62 8 7 C8.4125 6.4946875 8.825 5.989375 9.25 5.46875 C13.91072697 0.22543216 13.91072697 0.22543216 17.24609375 -0.46484375 C19.4375 -0.4375 19.4375 -0.4375 23 0 C17.56342669 6.45140033 17.56342669 6.45140033 14.625 9.3125 C12.7687861 10.84965539 12.7687861 10.84965539 13 13 C14.45961229 14.19422823 15.92136194 15.38603377 17.3984375 16.55859375 C19.82633031 18.74369728 21.31537995 21.21389761 23 24 C15.74433657 24.61488673 15.74433657 24.61488673 12.125 21.625 C11.073125 20.325625 11.073125 20.325625 10 19 C9.34 18.34 8.68 17.68 8 17 C7.67 19.31 7.34 21.62 7 24 C4.69 24 2.38 24 0 24 C0 16.08 0 8.16 0 0 Z " fill="#A8B79A" transform="translate(98,10)"/>
<path d="M0 0 C4.29 0 8.58 0 13 0 C13 2.64 13 5.28 13 8 C9.04 8 5.08 8 1 8 C1 10.97 1 13.94 1 17 C4.96 17 8.92 17 13 17 C13 19.64 13 22.28 13 25 C0.33393286 26.02852275 0.33393286 26.02852275 -4.3125 22.8125 C-8.08668026 18.88772901 -7.75852242 14.20305949 -7.734375 9.0234375 C-6.79449226 5.15392028 -5.3286951 4.06782574 -2 2 C-1.34 2 -0.68 2 0 2 C0 1.34 0 0.68 0 0 Z " fill="#757E6B" transform="translate(80,9)"/>
<path d="M0 0 C2.64 0 5.28 0 8 0 C9.50548369 3.78951244 11.00345314 7.58195031 12.5 11.375 C12.92925781 12.45523437 13.35851562 13.53546875 13.80078125 14.6484375 C14.40986328 16.1953125 14.40986328 16.1953125 15.03125 17.7734375 C15.40830078 18.72653809 15.78535156 19.67963867 16.17382812 20.66162109 C17 23 17 23 17 25 C14.36 25 11.72 25 9 25 C7.68 21.04 6.36 17.08 5 13 C2.71540242 15.28459758 2.02870252 17.12537344 0.875 20.125 C0.52179687 21.03507812 0.16859375 21.94515625 -0.1953125 22.8828125 C-0.46085937 23.58148438 -0.72640625 24.28015625 -1 25 C-3.31 25 -5.62 25 -8 25 C-7.38074535 21.5847973 -6.53132639 18.40646528 -5.37109375 15.13671875 C-5.05849609 14.25048828 -4.74589844 13.36425781 -4.42382812 12.45117188 C-3.9355957 11.0831543 -3.9355957 11.0831543 -3.4375 9.6875 C-3.10814453 8.75615234 -2.77878906 7.82480469 -2.43945312 6.86523438 C-1.62932179 4.57573277 -0.81608317 2.28738542 0 0 Z " fill="#ABB7A0" transform="translate(53,9)"/>
<path d="M0 0 C2.64 0 5.28 0 8 0 C5.56694668 14.12878333 2.29100404 28.0503584 -1 42 C-3.64 42 -6.28 42 -9 42 C-8.43529557 35.69413384 -7.33725811 29.898069 -5.625 23.8125 C-3.47105848 15.91939181 -1.61010935 8.02436611 0 0 Z " fill="#8C987F" transform="translate(131,0)"/>
<path d="M0 0 C2.31 0 4.62 0 7 0 C7.67354499 1.43429001 8.33859701 2.87257057 9 4.3125 C9.556875 5.51326172 9.556875 5.51326172 10.125 6.73828125 C11 9 11 9 11 12 C11.66 12 12.32 12 13 12 C13.20496094 11.21753906 13.40992188 10.43507813 13.62109375 9.62890625 C13.89050781 8.61699219 14.15992188 7.60507812 14.4375 6.5625 C14.70433594 5.55316406 14.97117188 4.54382813 15.24609375 3.50390625 C16 1 16 1 17 0 C19.33297433 -0.04092937 21.66705225 -0.04241723 24 0 C23.39461212 3.35951302 22.56675919 6.44884363 21.37109375 9.64453125 C21.05849609 10.48564453 20.74589844 11.32675781 20.42382812 12.19335938 C19.9355957 13.48983398 19.9355957 13.48983398 19.4375 14.8125 C19.10814453 15.69615234 18.77878906 16.57980469 18.43945312 17.49023438 C17.62965399 19.66143495 16.81641107 21.83127889 16 24 C13.36 24 10.72 24 8 24 C6.66147204 20.37689672 5.33006282 16.75121856 4 13.125 C3.6184375 12.09246094 3.236875 11.05992188 2.84375 9.99609375 C2.4828125 9.00996094 2.121875 8.02382813 1.75 7.0078125 C1.41484375 6.09660645 1.0796875 5.18540039 0.734375 4.24658203 C0 2 0 2 0 0 Z " fill="#D8E5CB" transform="translate(180,10)"/>
<path d="M0 0 C2.31 0 4.62 0 7 0 C7 7.92 7 15.84 7 24 C4.69 24 2.38 24 0 24 C0 16.08 0 8.16 0 0 Z " fill="#D1DEC0" transform="translate(34,10)"/>
<path d="M0 0 C2.31 0 4.62 0 7 0 C7 7.92 7 15.84 7 24 C4.69 24 2.38 24 0 24 C0 16.08 0 8.16 0 0 Z " fill="#DCEFC8" transform="translate(168,10)"/>
<path d="M0 0 C2.31 0 4.62 0 7 0 C7.0272415 1.41655793 7.04650467 2.83327045 7.0625 4.25 C7.07410156 5.03890625 7.08570312 5.8278125 7.09765625 6.640625 C7 9 7 9 6.43359375 11.234375 C6.29050781 11.81703125 6.14742188 12.3996875 6 13 C6.33 13.33 6.66 13.66 7 14 C7.07205511 15.68608966 7.08386068 17.37500659 7.0625 19.0625 C7.05347656 19.98160156 7.04445313 20.90070312 7.03515625 21.84765625 C7.02355469 22.55792969 7.01195313 23.26820312 7 24 C4.69 24 2.38 24 0 24 C0 16.08 0 8.16 0 0 Z " fill="#DBEDCB" transform="translate(98,10)"/>
<path d="M0 0 C0.66 0 1.32 0 2 0 C3.33891561 3.28942366 4.67017703 6.58189109 6 9.875 C6.3815625 10.81214844 6.763125 11.74929687 7.15625 12.71484375 C7.5171875 13.61074219 7.878125 14.50664062 8.25 15.4296875 C8.58515625 16.25710449 8.9203125 17.08452148 9.265625 17.93701172 C10 20 10 20 10 22 C7.36 22 4.72 22 2 22 C-0.94492926 14.53024381 -2.69399887 8.94876391 -1 1 C-0.67 0.67 -0.34 0.34 0 0 Z " fill="#D8E4CA" transform="translate(60,12)"/>
<path d="M0 0 C5.47932789 1.54545146 10.11429181 4.15543212 15 7 C14.8359375 9.29296875 14.8359375 9.29296875 14 12 C11.6015625 13.80078125 11.6015625 13.80078125 8.625 15.3125 C7.64789063 15.82425781 6.67078125 16.33601563 5.6640625 16.86328125 C3 18 3 18 0 18 C0.0625 15.6875 0.0625 15.6875 1 13 C4.5 11.3125 4.5 11.3125 8 10 C8.33 9.34 8.66 8.68 9 8 C7.6078125 7.566875 7.6078125 7.566875 6.1875 7.125 C3 6 3 6 0 4 C0 2.68 0 1.36 0 0 Z " fill="#C3CDBB" transform="translate(231,13)"/>
<path d="M0 0 C0 1.65 0 3.3 0 5 C-4.455 6.485 -4.455 6.485 -9 8 C-6.26432966 11.02567774 -6.26432966 11.02567774 -3.3125 12.4375 C-2.549375 12.953125 -1.78625 13.46875 -1 14 C-1 15.32 -1 16.64 -1 18 C-6.31027254 16.53967505 -10.46330032 14.01679014 -15 11 C-14.87109375 8.70703125 -14.87109375 8.70703125 -14 6 C-11.34765625 4.19921875 -11.34765625 4.19921875 -8.0625 2.6875 C-6.98097656 2.17574219 -5.89945313 1.66398438 -4.78515625 1.13671875 C-2 0 -2 0 0 0 Z " fill="#B8BFAE" transform="translate(15,13)"/>
<path d="M0 0 C1.134375 0.020625 2.26875 0.04125 3.4375 0.0625 C2.71741594 4.67103797 1.12454061 8.73487409 -0.5625 13.0625 C-3.5625 13.0625 -6.5625 13.0625 -9.5625 13.0625 C-8.9025 12.7325 -8.2425 12.4025 -7.5625 12.0625 C-6.68631416 9.52058722 -6.68631416 9.52058722 -6 6.5625 C-4.38697376 0.07696445 -4.38697376 0.07696445 0 0 Z " fill="#9CA48F" transform="translate(200.5625,9.9375)"/>
<path d="M0 0 C2.31 0 4.62 0 7 0 C7 4.62 7 9.24 7 14 C1.82485876 11.41242938 1.82485876 11.41242938 0 9 C-0.29296875 6.73828125 -0.29296875 6.73828125 -0.1875 4.3125 C-0.16042969 3.50425781 -0.13335937 2.69601563 -0.10546875 1.86328125 C-0.07066406 1.24839844 -0.03585938 0.63351562 0 0 Z " fill="#D9ECC9" transform="translate(155,10)"/>
<path d="M0 0 C1.98 0 3.96 0 6 0 C6 4.95 6 9.9 6 15 C2 13 2 13 0 11 C-0.1953125 8.3984375 -0.1953125 8.3984375 -0.125 5.375 C-0.10695313 4.37210938 -0.08890625 3.36921875 -0.0703125 2.3359375 C-0.04710938 1.56507812 -0.02390625 0.79421875 0 0 Z " fill="#A4AE97" transform="translate(74,17)"/>
<path d="M0 0 C3.63 0 7.26 0 11 0 C11 2.31 11 4.62 11 7 C7.37 7 3.74 7 0 7 C0 4.69 0 2.38 0 0 Z " fill="#D7E8C7" transform="translate(215,18)"/>
<path d="M0 0 C0.66 0.33 1.32 0.66 2 1 C1.53199289 5.05606165 1.12046792 8.46588679 -1 12 C-3.31 12 -5.62 12 -8 12 C-7.19831667 7.18990003 -6.55359961 4.12635972 -2.5 1.1875 C-1.675 0.795625 -0.85 0.40375 0 0 Z " fill="#CBD5C0" transform="translate(53,22)"/>
<path d="M0 0 C-0.59924224 4.19469571 -1.57499941 8.00999834 -3 12 C-5.64 12 -8.28 12 -11 12 C-10.34 11.67 -9.68 11.34 -9 11 C-8.39923744 8.72600246 -8.0436846 6.44869424 -7.66015625 4.12890625 C-6.37259013 -0.02330401 -3.99627949 0 0 0 Z " fill="#B9C4AA" transform="translate(199,22)"/>
<path d="M0 0 C-6.36014212 7.97749785 -6.36014212 7.97749785 -11 10 C-13.8125 10.1875 -13.8125 10.1875 -16 10 C-12.95541326 2.08407448 -8.191488 -0.84739531 0 0 Z " fill="#85907A" transform="translate(121,10)"/>
<path d="M0 0 C1.98 0 3.96 0 6 0 C6 4.62 6 9.24 6 14 C2 12 2 12 0 10 C-0.1953125 7.6171875 -0.1953125 7.6171875 -0.125 4.875 C-0.10695312 3.96492187 -0.08890625 3.05484375 -0.0703125 2.1171875 C-0.04710937 1.41851562 -0.02390625 0.71984375 0 0 Z " fill="#DEF1CE" transform="translate(35,10)"/>
<path d="M0 0 C3.96 0 7.92 0 12 0 C12 1.98 12 3.96 12 6 C8.04 6 4.08 6 0 6 C0 4.02 0 2.04 0 0 Z " fill="#E1F1D0" transform="translate(215,27)"/>
<path d="M0 0 C3.96 0 7.92 0 12 0 C12 1.98 12 3.96 12 6 C8.04 6 4.08 6 0 6 C0 4.02 0 2.04 0 0 Z " fill="#E1F2D0" transform="translate(215,10)"/>
<path d="M0 0 C-0.33 3.63 -0.66 7.26 -1 11 C-3.64 11 -6.28 11 -9 11 C-8.74438677 8.6568787 -8.40729228 6.32156597 -8 4 C-7.34 3.67 -6.68 3.34 -6 3 C-5.34 3.33 -4.68 3.66 -4 4 C-4 3.01 -4 2.02 -4 1 C-2 0 -2 0 0 0 Z " fill="#C5D4B5" transform="translate(131,31)"/>
<path d="M0 0 C3.63 0 7.26 0 11 0 C11 1.98 11 3.96 11 6 C7.37 6 3.74 6 0 6 C0 4.02 0 2.04 0 0 Z " fill="#E0F2CE" transform="translate(81,27)"/>
<path d="M0 0 C3.63 0 7.26 0 11 0 C11 1.98 11 3.96 11 6 C7.37 6 3.74 6 0 6 C0 4.02 0 2.04 0 0 Z " fill="#E0F2CE" transform="translate(81,10)"/>
<path d="M0 0 C0.99 0.33 1.98 0.66 3 1 C2.2200737 4.46109008 1.42408427 7.91828716 0.625 11.375 C0.40328125 12.35984375 0.1815625 13.3446875 -0.046875 14.359375 C-0.26601562 15.30039062 -0.48515625 16.24140625 -0.7109375 17.2109375 C-1.00943604 18.51490479 -1.00943604 18.51490479 -1.31396484 19.84521484 C-2 22 -2 22 -4 24 C-4.40613517 16.01267496 -3.62995473 7.25990946 0 0 Z " fill="#B7C0AB" transform="translate(136,1)"/>
<path d="M0 0 C4.9723422 1.49170266 9.41845739 3.60457417 14 6 C13.67 6.99 13.34 7.98 13 9 C10.9375 9.6875 10.9375 9.6875 9 10 C9 9.34 9 8.68 9 8 C7.6078125 7.566875 7.6078125 7.566875 6.1875 7.125 C3 6 3 6 0 4 C0 2.68 0 1.36 0 0 Z " fill="#757C6E" transform="translate(231,13)"/>
<path d="M0 0 C0 1.65 0 3.3 0 5 C-0.63808594 5.19335938 -1.27617187 5.38671875 -1.93359375 5.5859375 C-2.75988281 5.84632812 -3.58617187 6.10671875 -4.4375 6.375 C-5.67306641 6.75785156 -5.67306641 6.75785156 -6.93359375 7.1484375 C-9.17798016 7.80882227 -9.17798016 7.80882227 -10 10 C-10 9.34 -10 8.68 -10 8 C-11.32 7.34 -12.64 6.68 -14 6 C-12.04414675 4.99515796 -10.08523763 3.99626195 -8.125 3 C-6.48917969 2.1646875 -6.48917969 2.1646875 -4.8203125 1.3125 C-2 0 -2 0 0 0 Z " fill="#8C9282" transform="translate(15,13)"/>
<path d="M0 0 C2.72574271 0.37330824 3.80822085 0.79194601 5.703125 2.84765625 C6.21359375 3.57855469 6.7240625 4.30945313 7.25 5.0625 C8.03117187 6.16271484 8.03117187 6.16271484 8.828125 7.28515625 C9.21484375 7.85105469 9.6015625 8.41695312 10 9 C8.72125 9.061875 7.4425 9.12375 6.125 9.1875 C5.40570313 9.22230469 4.68640625 9.25710937 3.9453125 9.29296875 C3.30335937 9.19628906 2.66140625 9.09960938 2 9 C-0.29013653 5.5647952 -0.17842973 4.014669 0 0 Z " fill="#C5D2B8" transform="translate(111,25)"/>
<path d="M0 0 C1.4540625 0.0309375 1.4540625 0.0309375 2.9375 0.0625 C2.9375 2.3725 2.9375 4.6825 2.9375 7.0625 C2.6075 6.4025 2.2775 5.7425 1.9375 5.0625 C0.6175 5.3925 -0.7025 5.7225 -2.0625 6.0625 C-2.0625 7.0525 -2.0625 8.0425 -2.0625 9.0625 C-3.3825 9.0625 -4.7025 9.0625 -6.0625 9.0625 C-5.75431644 7.74897977 -5.44082335 6.43670428 -5.125 5.125 C-4.95097656 4.39410156 -4.77695313 3.66320312 -4.59765625 2.91015625 C-3.69960246 -0.19042363 -3.41295952 0.06965224 0 0 Z " fill="#B1BFA3" transform="translate(129.0625,25.9375)"/>
<path d="M0 0 C1.98 0 3.96 0 6 0 C6 7.59 6 15.18 6 23 C5.34 22.67 4.68 22.34 4 22 C4.01160156 21.02417969 4.02320313 20.04835938 4.03515625 19.04296875 C4.04417969 17.77066406 4.05320313 16.49835937 4.0625 15.1875 C4.07410156 13.92292969 4.08570313 12.65835937 4.09765625 11.35546875 C4.16159116 8.00394763 4.16159116 8.00394763 3 5 C2.01 4.67 1.02 4.34 0 4 C0 2.68 0 1.36 0 0 Z " fill="#E0F0D0" transform="translate(169,10)"/>
<path d="M0 0 C0.33 0 0.66 0 1 0 C1.5939348 7.57266875 -0.56713714 13.87518733 -3 21 C-3.66 21 -4.32 21 -5 21 C-3.29787234 3.29787234 -3.29787234 3.29787234 0 0 Z " fill="#B2BBA8" transform="translate(132,1)"/>
<path d="M0 0 C1.32 0.33 2.64 0.66 4 1 C4.66 3.31 5.32 5.62 6 8 C3.36 8 0.72 8 -2 8 C-1.47731534 5.23723823 -0.89130413 2.6739124 0 0 Z " fill="#CCD8C2" transform="translate(64,26)"/>
<path d="M0 0 C2.97 0.495 2.97 0.495 6 1 C6 3.97 6 6.94 6 10 C2 8 2 8 0 6 C-0.125 2.875 -0.125 2.875 0 0 Z " fill="#C4CFB6" transform="translate(208,22)"/>
<path d="M0 0 C2.64 0 5.28 0 8 0 C8.33 0.99 8.66 1.98 9 3 C7.9375 4.5625 7.9375 4.5625 6 6 C2.3125 5.6875 2.3125 5.6875 -1 5 C-0.67 3.35 -0.34 1.7 0 0 Z " fill="#848E7B" transform="translate(53,9)"/>
<path d="M0 0 C2.31 0.33 4.62 0.66 7 1 C7 2.65 7 4.3 7 6 C4.69 6 2.38 6 0 6 C0 4.02 0 2.04 0 0 Z " fill="#C8D5BA" transform="translate(155,28)"/>
<path d="M0 0 C0.66 1.32 1.32 2.64 2 4 C2.66 4.33 3.32 4.66 4 5 C3.67 5.99 3.34 6.98 3 8 C2.34 7.67 1.68 7.34 1 7 C1 12.28 1 17.56 1 23 C2.98 23 4.96 23 7 23 C7 23.33 7 23.66 7 24 C4.69 24 2.38 24 0 24 C0 16.08 0 8.16 0 0 Z " fill="#AEB9A0" transform="translate(168,10)"/>
<path d="M0 0 C1.98 0 3.96 0 6 0 C6 2.64 6 5.28 6 8 C3.53199953 6.84826645 1.95216435 5.95216435 0 4 C0 2.68 0 1.36 0 0 Z " fill="#D5DFC7" transform="translate(74,24)"/>
<path d="M0 0 C1.66611905 -0.042721 3.33382885 -0.04063832 5 0 C6 1 6 1 6.0625 4.0625 C6.041875 5.031875 6.02125 6.00125 6 7 C3.03 6.505 3.03 6.505 0 6 C0 4.02 0 2.04 0 0 Z " fill="#ACB69A" transform="translate(208,16)"/>
<path d="M0 0 C2.31 0 4.62 0 7 0 C6.67 1.65 6.34 3.3 6 5 C3.03 4.505 3.03 4.505 0 4 C0 4.66 0 5.32 0 6 C-0.66 6 -1.32 6 -2 6 C-1.34 4.02 -0.68 2.04 0 0 Z " fill="#899080" transform="translate(197,10)"/>
<path d="M0 0 C0.33 0 0.66 0 1 0 C1.02578125 0.66386719 1.0515625 1.32773438 1.078125 2.01171875 C1.43351002 7.54441741 1.83118278 10.96566075 6 15 C3.92446352 15.5534764 2.15634036 16 0 16 C0 10.72 0 5.44 0 0 Z " fill="#AAB89A" transform="translate(34,10)"/>
<path d="M0 0 C1.67542976 0.28604898 3.34385343 0.61781233 5 1 C4 2.9375 4 2.9375 2 5 C-0.69924572 5.66549451 -3.20631637 5.81680763 -6 6 C-6 5.34 -6 4.68 -6 4 C-4.36368108 2.95107762 -2.69514137 1.95093297 -1 1 C-0.67 0.67 -0.34 0.34 0 0 Z " fill="#96A28A" transform="translate(111,14)"/>
<path d="M0 0 C2.00720923 0.28674418 4.0085944 0.61866701 6 1 C6.33 2.65 6.66 4.3 7 6 C1.25 4.375 1.25 4.375 -1 1 C-0.67 0.67 -0.34 0.34 0 0 Z " fill="#C6CBBE" transform="translate(7,25)"/>
<path d="M0 0 C0 1.65 0 3.3 0 5 C-2.97 4.505 -2.97 4.505 -6 4 C-6 7.96 -6 11.92 -6 16 C-6.33 16 -6.66 16 -7 16 C-7 11.71 -7 7.42 -7 3 C-1.125 0 -1.125 0 0 0 Z " fill="#777F6D" transform="translate(214,12)"/>
<path d="M0 0 C1.98 0 3.96 0 6 0 C6 0.99 6 1.98 6 3 C3.36 3.66 0.72 4.32 -2 5 C-1.34 3.35 -0.68 1.7 0 0 Z " fill="#9FAC90" transform="translate(126,26)"/>
<path d="M0 0 C5.75 -0.125 5.75 -0.125 8 1 C7.67 1.99 7.34 2.98 7 4 C4.9375 4.6875 4.9375 4.6875 3 5 C3 4.34 3 3.68 3 3 C2.01 2.67 1.02 2.34 0 2 C0 1.34 0 0.68 0 0 Z " fill="#969E8D" transform="translate(237,18)"/>
<path d="M0 0 C2.31 0.33 4.62 0.66 7 1 C6.34 3.31 5.68 5.62 5 8 C3 5 3 5 2 2 C1.67 2.66 1.34 3.32 1 4 C0.34 4 -0.32 4 -1 4 C-0.67 2.68 -0.34 1.36 0 0 Z " fill="#9DA992" transform="translate(52,14)"/>
<path d="M0 0 C0.33 1.32 0.66 2.64 1 4 C-1.375 5.0625 -1.375 5.0625 -4 6 C-4.66 5.67 -5.32 5.34 -6 5 C-6 4.34 -6 3.68 -6 3 C-5.34 3 -4.68 3 -4 3 C-3.67 2.34 -3.34 1.68 -3 1 C-2.01 0.67 -1.02 0.34 0 0 Z " fill="#B5C1A9" transform="translate(245,20)"/>
<path d="M0 0 C1.65 0 3.3 0 5 0 C3.68 2.64 2.36 5.28 1 8 C0.67 8 0.34 8 0 8 C0 5.36 0 2.72 0 0 Z " fill="#E3F0D4" transform="translate(155,10)"/>
<path d="M0 0 C2.09749995 2.35968744 2.96905704 3.54616994 3.1875 6.75 C3.125625 7.4925 3.06375 8.235 3 9 C1 7.8125 1 7.8125 -1 6 C-1.3125 3.375 -1.3125 3.375 -1 1 C-0.67 0.67 -0.34 0.34 0 0 Z " fill="#B1BE9F" transform="translate(108,22)"/>
<path d="M0 0 C0.66 0.33 1.32 0.66 2 1 C1.67 3.31 1.34 5.62 1 8 C0.34 6.68 -0.32 5.36 -1 4 C-1.66 4 -2.32 4 -3 4 C-3 3.34 -3 2.68 -3 2 C-2.01 1.34 -1.02 0.68 0 0 Z " fill="#BFCBB4" transform="translate(53,22)"/>
<path d="M0 0 C2.31 0 4.62 0 7 0 C7 1.98 7 3.96 7 6 C6.01 5.67 5.02 5.34 4 5 C4.33 4.01 4.66 3.02 5 2 C3.35 1.67 1.7 1.34 0 1 C0 0.67 0 0.34 0 0 Z " fill="#E3EDD5" transform="translate(27,19)"/>
<path d="M0 0 C2.64 0 5.28 0 8 0 C7.01 0.33 6.02 0.66 5 1 C4.67 2.65 4.34 4.3 4 6 C3.34 6 2.68 6 2 6 C1.34 4.02 0.68 2.04 0 0 Z " fill="#77836D" transform="translate(131,0)"/>
<path d="M0 0 C1.65 1.65 3.3 3.3 5 5 C4.34 5.66 3.68 6.32 3 7 C1.68 5.68 0.36 4.36 -1 3 C-0.67 2.01 -0.34 1.02 0 0 Z " fill="#B1BFA3" transform="translate(113,25)"/>
<path d="M0 0 C0.66 0 1.32 0 2 0 C1.67 0.99 1.34 1.98 1 3 C-0.32303717 3.3721042 -1.65737935 3.70630173 -3 4 C-3.33 4.66 -3.66 5.32 -4 6 C-4 5.34 -4 4.68 -4 4 C-5.32 3.34 -6.64 2.68 -8 2 C-6.865625 1.855625 -5.73125 1.71125 -4.5625 1.5625 C-1.19222799 1.38828522 -1.19222799 1.38828522 0 0 Z " fill="#989E90" transform="translate(9,17)"/>
<path d="M0 0 C2.97 0.495 2.97 0.495 6 1 C6 1.99 6 2.98 6 4 C4.35 4 2.7 4 1 4 C0.67 2.68 0.34 1.36 0 0 Z " fill="#B7C3AA" transform="translate(208,22)"/>
<path d="M0 0 C1.98 0 3.96 0 6 0 C6 0.99 6 1.98 6 3 C3.36 3 0.72 3 -2 3 C-1.34 2.67 -0.68 2.34 0 2 C0 1.34 0 0.68 0 0 Z " fill="#C5CBBB" transform="translate(190,31)"/>
<path d="M0 0 C0.33 0 0.66 0 1 0 C1 1.65 1 3.3 1 5 C-1.31 4.67 -3.62 4.34 -6 4 C-6 3.34 -6 2.68 -6 2 C-4.35 2 -2.7 2 -1 2 C-0.67 1.34 -0.34 0.68 0 0 Z " fill="#B5C0A7" transform="translate(161,24)"/>
<path d="M0 0 C1.98 0 3.96 0 6 0 C6 0.99 6 1.98 6 3 C4.02 3 2.04 3 0 3 C0 2.01 0 1.02 0 0 Z " fill="#BCC8AD" transform="translate(74,21)"/>
<path d="M0 0 C0.66 1.32 1.32 2.64 2 4 C2.66 4.33 3.32 4.66 4 5 C3.67 5.99 3.34 6.98 3 8 C2.34 7.67 1.68 7.34 1 7 C0.67 7.99 0.34 8.98 0 10 C0 6.7 0 3.4 0 0 Z " fill="#B4C1A5" transform="translate(168,10)"/>
<path d="M0 0 C1.65 0 3.3 0 5 0 C5.33 1.32 5.66 2.64 6 4 C4.02 4 2.04 4 0 4 C0 2.68 0 1.36 0 0 Z " fill="#9FA890" transform="translate(208,16)"/>
<path d="M0 0 C0.66 0 1.32 0 2 0 C2 1.65 2 3.3 2 5 C0.68 5.33 -0.64 5.66 -2 6 C-1.125 1.125 -1.125 1.125 0 0 Z " fill="#777A6F" transform="translate(13,13)"/>
<path d="M0 0 C2.64 0 5.28 0 8 0 C7.01 1.485 7.01 1.485 6 3 C3.69 2.67 1.38 2.34 -1 2 C-0.67 1.34 -0.34 0.68 0 0 Z " fill="#7E8576" transform="translate(113,10)"/>
</svg>
